<svg width="131" height="30" viewBox="0 0 131 30" fill="none" xmlns="http://www.w3.org/2000/svg">
    <path d="M0.952 6.544C0.952 5.92533 1.10133 5.46667 1.4 5.168C1.72 4.848 2.18933 4.688 2.808 4.688H14.744C15.3413 4.688 15.8 4.848 16.12 5.168C16.44 5.46667 16.6 5.92533 16.6 6.544V26.608C16.6 27.2267 16.44 27.6853 16.12 27.984C15.8213 28.304 15.3627 28.464 14.744 28.464H2.808C2.18933 28.464 1.72 28.304 1.4 27.984C1.10133 27.6853 0.952 27.2267 0.952 26.608V6.544ZM14.136 7.312H3.384V25.84H14.136V7.312ZM14.36 14.864C15.0427 14.864 15.384 15.2053 15.384 15.888V16.496C15.384 17.1573 15.0427 17.488 14.36 17.488H3.192C2.50933 17.488 2.168 17.1573 2.168 16.496V15.888C2.168 15.2053 2.50933 14.864 3.192 14.864H14.36ZM9.048 0.207998C9.70933 0.207998 10.04 0.527999 10.04 1.168V26.16C10.04 26.8213 9.70933 27.152 9.048 27.152H8.472C7.832 27.152 7.512 26.8213 7.512 26.16V1.168C7.512 0.527999 7.832 0.207998 8.472 0.207998H9.048ZM26.616 1.168C27.2987 1.168 27.8107 1.33867 28.152 1.68C28.5147 2.02133 28.6853 2.53333 28.664 3.216C28.6427 6.48 28.0773 9.56267 26.968 12.464C27.8213 13.7867 28.3867 15.2373 28.664 16.816C28.9413 18.3733 28.9413 19.9413 28.664 21.52C28.3867 23.0987 27.8533 24.5493 27.064 25.872C26.7867 26.4907 26.36 26.6293 25.784 26.288L25.272 26C24.696 25.68 24.5573 25.2107 24.856 24.592C25.56 23.2053 26.008 21.8613 26.2 20.56C26.4133 19.2373 26.3707 17.9893 26.072 16.816C25.7733 15.6213 25.2187 14.5333 24.408 13.552C24.152 13.1467 24.1093 12.7413 24.28 12.336C25.368 9.79733 25.9867 6.992 26.136 3.92H21.592V28.56C21.592 29.2 21.272 29.52 20.632 29.52H20.056C19.3947 29.52 19.064 29.1893 19.064 28.528V3.088C19.064 1.808 19.704 1.168 20.984 1.168H26.616ZM42.936 3.312C43.576 3.312 43.896 3.632 43.896 4.272V4.848C43.896 5.488 43.576 5.808 42.936 5.808H35.8C35.16 5.808 34.84 5.488 34.84 4.848V4.272C34.84 3.632 35.16 3.312 35.8 3.312H42.936ZM39.672 0.239998C40.312 0.239998 40.632 0.549332 40.632 1.168V11.056C40.632 11.6747 40.312 11.984 39.672 11.984H39.128C38.488 11.984 38.168 11.6747 38.168 11.056V1.168C38.168 0.549332 38.488 0.239998 39.128 0.239998H39.672ZM43.32 10.736C43.96 10.736 44.28 11.056 44.28 11.696V12.272C44.28 12.912 43.96 13.232 43.32 13.232H35.384C34.744 13.232 34.424 12.912 34.424 12.272V11.696C34.424 11.056 34.744 10.736 35.384 10.736H43.32ZM36.696 16.016C37.272 16.016 37.5493 16.304 37.528 16.88C37.5067 18.9493 37.336 20.9867 37.016 22.992C36.7173 24.976 36.28 26.7787 35.704 28.4C35.512 28.9547 35.16 29.136 34.648 28.944L34.136 28.752C33.624 28.5813 33.4533 28.2187 33.624 27.664C34.2 26.0213 34.6267 24.2507 34.904 22.352C35.1813 20.4533 35.32 18.6293 35.32 16.88C35.3413 16.304 35.6293 16.016 36.184 16.016H36.696ZM43.16 17.68C43.7147 17.68 43.992 17.9467 43.992 18.48V19.376C43.992 19.9093 43.7147 20.176 43.16 20.176H41.368C40.8347 20.176 40.568 19.9093 40.568 19.376V18.48C40.568 17.9467 40.8347 17.68 41.368 17.68H43.16ZM40.824 11.984C41.4213 11.984 41.72 12.2827 41.72 12.88V25.168C41.72 25.7653 41.4213 26.064 40.824 26.064H40.28C39.6613 26.064 39.352 25.7653 39.352 25.168V12.88C39.352 12.2827 39.6613 11.984 40.28 11.984H40.824ZM36.056 22.096C36.312 21.904 36.5467 21.8293 36.76 21.872C36.9947 21.8933 37.2293 22.0213 37.464 22.256C38.7227 23.728 40.1733 24.7733 41.816 25.392C43.4587 26.0107 45.3467 26.32 47.48 26.32H62.328C62.968 26.32 63.288 26.64 63.288 27.28V27.856C63.288 28.496 62.968 28.816 62.328 28.816H47.48C45.048 28.816 42.8187 28.4213 40.792 27.632C38.7653 26.864 36.984 25.5733 35.448 23.76C35.2347 23.5253 35.1387 23.3013 35.16 23.088C35.2027 22.8533 35.352 22.6293 35.608 22.416L36.056 22.096ZM46.936 2.192C47.4907 2.192 47.768 2.46933 47.768 3.024V20.336C47.768 20.8907 47.4907 21.168 46.936 21.168H46.456C45.88 21.168 45.592 20.8907 45.592 20.336V3.024C45.592 2.46933 45.88 2.192 46.456 2.192H46.936ZM51.064 13.232C51.7253 13.232 52.056 13.5627 52.056 14.224V14.832C52.056 15.472 51.7253 15.792 51.064 15.792H47.736C47.0747 15.792 46.744 15.472 46.744 14.832V14.224C46.744 13.5627 47.0747 13.232 47.736 13.232H51.064ZM51.064 7.088C51.7253 7.088 52.056 7.41867 52.056 8.08V8.656C52.056 9.31733 51.7253 9.648 51.064 9.648H47.736C47.0747 9.648 46.744 9.31733 46.744 8.656V8.08C46.744 7.41867 47.0747 7.088 47.736 7.088H51.064ZM52.376 2.192C52.9307 2.192 53.208 2.46933 53.208 3.024V24.368C53.208 24.9227 52.9307 25.2 52.376 25.2H51.864C51.3093 25.2 51.032 24.9227 51.032 24.368V3.024C51.032 2.46933 51.3093 2.192 51.864 2.192H52.376ZM53.784 19.92C54.424 19.92 54.744 20.24 54.744 20.88V21.456C54.744 22.096 54.424 22.416 53.784 22.416H45.272C44.632 22.416 44.312 22.096 44.312 21.456V20.88C44.312 20.24 44.632 19.92 45.272 19.92H53.784ZM53.368 0.943998C54.008 0.943998 54.328 1.264 54.328 1.904V2.48C54.328 3.12 54.008 3.44 53.368 3.44H45.496C44.856 3.44 44.536 3.12 44.536 2.48V1.904C44.536 1.264 44.856 0.943998 45.496 0.943998H53.368ZM60.984 1.584C61.5173 1.584 61.9227 1.73333 62.2 2.032C62.4987 2.30933 62.648 2.72533 62.648 3.28V9.392C62.648 11.8453 62.4027 13.9893 61.912 15.824C61.4427 17.6373 60.7387 19.2373 59.8 20.624C58.8827 21.9893 57.7093 23.28 56.28 24.496C55.8107 24.9013 55.4053 24.848 55.064 24.336L54.744 23.856C54.424 23.3867 54.5093 22.9387 55 22.512C56.3013 21.4027 57.3467 20.272 58.136 19.12C58.9253 17.9467 59.512 16.592 59.896 15.056C60.3013 13.4987 60.504 11.6107 60.504 9.392V4.08H56.056C55.416 4.08 55.096 3.76 55.096 3.12V2.544C55.096 1.904 55.416 1.584 56.056 1.584H60.984ZM56.696 5.456C57.2507 5.456 57.528 5.73333 57.528 6.288V9.392C57.528 11.6107 57.72 13.4987 58.104 15.056C58.5093 16.6133 59.1067 17.9787 59.896 19.152C60.6853 20.304 61.7307 21.4453 63.032 22.576C63.5227 22.96 63.5973 23.408 63.256 23.92L62.936 24.368C62.5947 24.8587 62.1787 24.912 61.688 24.528C60.28 23.2907 59.1173 21.9893 58.2 20.624C57.2827 19.2373 56.5787 17.6373 56.088 15.824C55.6187 13.9893 55.384 11.8453 55.384 9.392V6.288C55.384 5.73333 55.6613 5.456 56.216 5.456H56.696ZM83.544 8.048C84.2053 8.048 84.536 8.368 84.536 9.008V9.584C84.536 10.224 84.2053 10.544 83.544 10.544H79.608C78.9467 10.544 78.616 10.224 78.616 9.584V9.008C78.616 8.368 78.9467 8.048 79.608 8.048H83.544ZM84.024 1.008C85.176 1.008 85.752 1.584 85.752 2.736V15.984C85.752 17.1573 85.176 17.744 84.024 17.744H79.48C78.84 17.744 78.52 17.4133 78.52 16.752V16.144C78.52 15.504 78.84 15.184 79.48 15.184H83.512V3.568H79.64V25.264L83.064 23.408C83.64 23.1093 84.056 23.2587 84.312 23.856L84.568 24.368C84.8453 24.944 84.696 25.3813 84.12 25.68L79.896 27.92C79.064 28.3467 78.4347 28.432 78.008 28.176C77.5813 27.9413 77.368 27.344 77.368 26.384V2.736C77.368 1.584 77.9547 1.008 79.128 1.008H84.024ZM88.408 6.128C88.9413 6.128 89.208 6.39467 89.208 6.928V12.656H95.896C96.536 12.656 96.856 12.976 96.856 13.616V14.224C96.856 14.864 96.536 15.184 95.896 15.184H88.824C88.2907 15.184 87.8747 15.0453 87.576 14.768C87.2987 14.4907 87.16 14.0747 87.16 13.52V6.928C87.16 6.39467 87.416 6.128 87.928 6.128H88.408ZM95.64 1.168C96.3013 1.168 96.632 1.488 96.632 2.128V2.736C96.632 3.376 96.3013 3.696 95.64 3.696H88.024C87.3627 3.696 87.032 3.376 87.032 2.736V2.16C87.032 1.49867 87.3627 1.168 88.024 1.168H95.64ZM92.504 2.448C93.08 2.448 93.368 2.736 93.368 3.312V8.88C93.368 12.848 92.9307 16.496 92.056 19.824C91.2027 23.1307 89.816 26.0747 87.896 28.656C87.5333 29.1253 87.1387 29.168 86.712 28.784L86.296 28.464C85.8693 28.08 85.8267 27.664 86.168 27.216C87.9173 24.848 89.176 22.1493 89.944 19.12C90.7333 16.0693 91.128 12.656 91.128 8.88V3.312C91.128 2.736 91.416 2.448 91.992 2.448H92.504ZM93.688 17.168C94.264 17.168 94.552 17.456 94.552 18.032V26.448H96.216C96.8773 26.448 97.208 26.7787 97.208 27.44V28.016C97.208 28.6773 96.8773 29.008 96.216 29.008H94.04C92.8667 29.008 92.28 28.4213 92.28 27.248V18.032C92.28 17.456 92.568 17.168 93.144 17.168H93.688ZM69.336 9.84C69.8693 9.84 70.136 10.1067 70.136 10.64V14.608C70.136 16.5707 70.0827 18.4267 69.976 20.176C69.8907 21.904 69.7307 23.5573 69.496 25.136C69.432 25.6693 69.1333 25.8933 68.6 25.808L68.12 25.776C67.5867 25.6907 67.352 25.3707 67.416 24.816C67.672 23.3013 67.8427 21.712 67.928 20.048C68.0347 18.3627 68.088 16.5493 68.088 14.608V10.64C68.088 10.1067 68.344 9.84 68.856 9.84H69.336ZM75.544 4.912C76.2267 4.912 76.568 5.25333 76.568 5.936V6.512C76.568 7.19467 76.2267 7.536 75.544 7.536H68.376C67.6933 7.536 67.352 7.19467 67.352 6.512V5.936C67.352 5.25333 67.6933 4.912 68.376 4.912H75.544ZM73.496 0.207998C74.1147 0.207998 74.424 0.517332 74.424 1.136V28.336C74.424 28.9547 74.1147 29.264 73.496 29.264H72.92C72.3013 29.264 71.992 28.9547 71.992 28.336V1.136C71.992 0.517332 72.3013 0.207998 72.92 0.207998H73.496ZM76.376 13.712C76.9733 14.0747 77.0907 14.544 76.728 15.12L76.408 15.632C76.0667 16.208 75.608 16.3147 75.032 15.952L73.336 14.992C72.76 14.6293 72.6427 14.16 72.984 13.584L73.304 13.072C73.6667 12.496 74.136 12.3893 74.712 12.752L76.376 13.712ZM83.8 19.312C84.3973 19.1413 84.7707 19.344 84.92 19.92L86.52 26.48C86.6907 27.0773 86.4773 27.4507 85.88 27.6L85.368 27.76C84.7707 27.9307 84.3867 27.7173 84.216 27.12L82.616 20.592C82.4667 19.9947 82.68 19.6107 83.256 19.44L83.8 19.312ZM115.544 4.304C115.992 3.92 116.419 3.94133 116.824 4.368L117.144 4.752C117.549 5.17867 117.528 5.584 117.08 5.968L112.568 10.064H117.88C118.456 10.064 118.744 10.352 118.744 10.928V11.44C118.744 12.016 118.456 12.304 117.88 12.304H110.936C109.549 12.304 108.76 12.0693 108.568 11.6C108.376 11.1307 108.803 10.4267 109.848 9.488L115.544 4.304ZM120.568 8.144C121.016 7.73867 121.432 7.76 121.816 8.208L122.136 8.592C122.52 9.06133 122.488 9.47733 122.04 9.84L112.088 18.544C111.64 18.928 111.224 18.9067 110.84 18.48L110.52 18.064C110.136 17.616 110.168 17.2 110.616 16.816L120.568 8.144ZM105.4 13.456C106.061 13.5413 106.328 13.9147 106.2 14.576C105.773 16.1973 105.24 17.7867 104.6 19.344C104.387 19.984 103.971 20.176 103.352 19.92L102.808 19.728C102.189 19.4933 101.997 19.056 102.232 18.416C102.552 17.648 102.829 16.8907 103.064 16.144C103.32 15.3973 103.533 14.736 103.704 14.16C103.811 13.52 104.184 13.2427 104.824 13.328L105.4 13.456ZM103.96 6.544C104.6 6.352 105.016 6.576 105.208 7.216L106.36 10.544C106.573 11.184 106.36 11.5893 105.72 11.76L105.144 11.952C104.525 12.144 104.12 11.92 103.928 11.28L102.744 7.952C102.552 7.312 102.765 6.90667 103.384 6.736L103.96 6.544ZM102.136 3.28C102.136 2.64 102.456 2.32 103.096 2.32H128.504C129.144 2.32 129.464 2.64 129.464 3.28V3.856C129.464 4.496 129.144 4.816 128.504 4.816H103.096C102.456 4.816 102.136 4.496 102.136 3.856V3.28ZM114.616 1.072C114.616 0.389332 114.947 0.0479984 115.608 0.0479984H116.312C116.973 0.0479984 117.304 0.389332 117.304 1.072V2.544C117.304 3.22667 116.973 3.568 116.312 3.568H115.608C114.947 3.568 114.616 3.22667 114.616 2.544V1.072ZM101.336 23.344C101.336 22.6827 101.656 22.352 102.296 22.352H129.304C129.944 22.352 130.264 22.6827 130.264 23.344V23.92C130.264 24.56 129.944 24.88 129.304 24.88H102.296C101.656 24.88 101.336 24.56 101.336 23.92V23.344ZM114.456 19.312C114.456 18.608 114.808 18.256 115.512 18.256H116.088C116.792 18.256 117.144 18.608 117.144 19.312V28.4C117.144 29.0827 116.792 29.424 116.088 29.424H115.512C114.808 29.424 114.456 29.0827 114.456 28.4V19.312ZM106.968 18C106.968 17.3813 107.277 17.072 107.896 17.072H121.016V15.056C121.016 14.3947 121.347 14.064 122.008 14.064H122.552C123.192 14.064 123.512 14.384 123.512 15.024V17.68C123.512 18.256 123.363 18.6933 123.064 18.992C122.765 19.2907 122.328 19.44 121.752 19.44H107.896C107.277 19.44 106.968 19.1413 106.968 18.544V18ZM126.776 13.36C127.395 13.232 127.779 13.4987 127.928 14.16C128.163 15.0347 128.408 15.8773 128.664 16.688C128.941 17.4773 129.187 18.0533 129.4 18.416C129.592 19.056 129.389 19.4933 128.792 19.728L128.248 19.92C127.629 20.176 127.213 19.984 127 19.344C126.339 17.7013 125.805 16.1227 125.4 14.608C125.293 13.9467 125.56 13.5627 126.2 13.456L126.776 13.36ZM126.392 7.216C126.584 6.576 127 6.352 127.64 6.544L128.216 6.736C128.835 6.90667 129.048 7.312 128.856 7.952L127.672 11.28C127.48 11.92 127.075 12.144 126.456 11.952L125.88 11.76C125.24 11.5893 125.027 11.184 125.24 10.544L126.392 7.216Z" fill="#4743FF"/>
</svg>
